<mxfile host="app.diagrams.net" modified="2024-04-28T00:56:57.207Z" agent="Mozilla/5.0 (Windows NT 10.0; Win64; x64) AppleWebKit/537.36 (KHTML, like Gecko) Chrome/124.0.0.0 Safari/537.36" etag="9rYJJnJ3znJJnqmo_x7h" version="24.3.1" type="google">
  <diagram name="Page-1" id="TOesrGOW6aYO0skS8-IF">
    <mxGraphModel grid="1" page="1" gridSize="10" guides="1" tooltips="1" connect="1" arrows="1" fold="1" pageScale="1" pageWidth="827" pageHeight="1169" math="0" shadow="0">
      <root>
        <mxCell id="0" />
        <mxCell id="1" parent="0" />
        <mxCell id="etnrESip1TvwMa772Zup-2" value="&lt;font style=&quot;font-size: 24px;&quot;&gt;&lt;b&gt;Patients&lt;/b&gt;&lt;/font&gt;" style="rounded=1;whiteSpace=wrap;html=1;fillColor=#CDA2BE;" vertex="1" parent="1">
          <mxGeometry x="-170" y="190" width="170" height="70" as="geometry" />
        </mxCell>
        <mxCell id="etnrESip1TvwMa772Zup-3" value="&lt;font style=&quot;font-size: 18px;&quot;&gt;&lt;u&gt;Patient_ID&lt;/u&gt;&lt;/font&gt;" style="ellipse;whiteSpace=wrap;html=1;fillColor=#FFFFCC;" vertex="1" parent="1">
          <mxGeometry x="-413" y="380" width="120" height="80" as="geometry" />
        </mxCell>
        <mxCell id="etnrESip1TvwMa772Zup-4" value="&lt;font style=&quot;font-size: 18px;&quot;&gt;Patient_Name&lt;/font&gt;" style="ellipse;whiteSpace=wrap;html=1;fillColor=#FFFFCC;" vertex="1" parent="1">
          <mxGeometry x="-460" y="280" width="150" height="80" as="geometry" />
        </mxCell>
        <mxCell id="etnrESip1TvwMa772Zup-5" value="&lt;font style=&quot;font-size: 18px;&quot;&gt;Patient_Address&lt;/font&gt;" style="ellipse;whiteSpace=wrap;html=1;fillColor=#FFFFCC;" vertex="1" parent="1">
          <mxGeometry x="-440" y="160" width="150" height="80" as="geometry" />
        </mxCell>
        <mxCell id="etnrESip1TvwMa772Zup-6" value="&lt;font style=&quot;font-size: 18px;&quot;&gt;Date_admitted&lt;/font&gt;" style="ellipse;whiteSpace=wrap;html=1;fillColor=#FFFFCC;" vertex="1" parent="1">
          <mxGeometry x="-460" y="60" width="140" height="80" as="geometry" />
        </mxCell>
        <mxCell id="etnrESip1TvwMa772Zup-7" value="&lt;font style=&quot;font-size: 18px;&quot;&gt;Date_discharged&lt;/font&gt;" style="ellipse;whiteSpace=wrap;html=1;fillColor=#FFFFCC;" vertex="1" parent="1">
          <mxGeometry x="-460" y="-40" width="167" height="80" as="geometry" />
        </mxCell>
        <mxCell id="etnrESip1TvwMa772Zup-8" value="&lt;font style=&quot;font-size: 18px;&quot;&gt;City&lt;/font&gt;" style="ellipse;whiteSpace=wrap;html=1;fillColor=#FFFFCC;" vertex="1" parent="1">
          <mxGeometry x="-660" y="230" width="120" height="80" as="geometry" />
        </mxCell>
        <mxCell id="etnrESip1TvwMa772Zup-9" value="&lt;font style=&quot;font-size: 18px;&quot;&gt;Street&lt;/font&gt;" style="ellipse;whiteSpace=wrap;html=1;fillColor=#FFFFCC;" vertex="1" parent="1">
          <mxGeometry x="-670" y="130" width="120" height="80" as="geometry" />
        </mxCell>
        <mxCell id="etnrESip1TvwMa772Zup-10" value="&lt;font style=&quot;font-size: 18px;&quot;&gt;Zip_code&lt;/font&gt;" style="ellipse;whiteSpace=wrap;html=1;fillColor=#FFFFCC;" vertex="1" parent="1">
          <mxGeometry x="-670" y="30" width="120" height="80" as="geometry" />
        </mxCell>
        <mxCell id="etnrESip1TvwMa772Zup-11" value="&lt;font style=&quot;font-size: 18px;&quot;&gt;Patient_Gender&lt;/font&gt;" style="ellipse;whiteSpace=wrap;html=1;fillColor=#FFFFCC;" vertex="1" parent="1">
          <mxGeometry x="-340" y="-120" width="140" height="90" as="geometry" />
        </mxCell>
        <mxCell id="etnrESip1TvwMa772Zup-12" value="&lt;font style=&quot;font-size: 18px;&quot;&gt;Room_NO&lt;/font&gt;" style="ellipse;whiteSpace=wrap;html=1;fillColor=#FFFFCC;" vertex="1" parent="1">
          <mxGeometry x="-190" y="-150" width="140" height="100" as="geometry" />
        </mxCell>
        <mxCell id="etnrESip1TvwMa772Zup-13" value="&lt;font style=&quot;font-size: 18px;&quot;&gt;Problem&lt;/font&gt;" style="ellipse;whiteSpace=wrap;html=1;fillColor=#FFFFCC;" vertex="1" parent="1">
          <mxGeometry x="100" y="-140" width="120" height="80" as="geometry" />
        </mxCell>
        <mxCell id="etnrESip1TvwMa772Zup-14" value="&lt;font style=&quot;font-size: 18px;&quot;&gt;Category&lt;/font&gt;" style="ellipse;whiteSpace=wrap;html=1;fillColor=#FFFFCC;" vertex="1" parent="1">
          <mxGeometry x="140" y="-50" width="120" height="80" as="geometry" />
        </mxCell>
        <mxCell id="etnrESip1TvwMa772Zup-15" value="" style="endArrow=none;html=1;rounded=0;exitX=0.963;exitY=0.212;exitDx=0;exitDy=0;exitPerimeter=0;" edge="1" parent="1" source="etnrESip1TvwMa772Zup-3">
          <mxGeometry width="50" height="50" relative="1" as="geometry">
            <mxPoint x="-200" y="310" as="sourcePoint" />
            <mxPoint x="-150" y="260" as="targetPoint" />
          </mxGeometry>
        </mxCell>
        <mxCell id="etnrESip1TvwMa772Zup-16" value="" style="endArrow=none;html=1;rounded=0;exitX=0.962;exitY=0.191;exitDx=0;exitDy=0;exitPerimeter=0;" edge="1" parent="1" source="etnrESip1TvwMa772Zup-4">
          <mxGeometry width="50" height="50" relative="1" as="geometry">
            <mxPoint x="-220" y="290" as="sourcePoint" />
            <mxPoint x="-170" y="240" as="targetPoint" />
          </mxGeometry>
        </mxCell>
        <mxCell id="etnrESip1TvwMa772Zup-17" value="" style="endArrow=none;html=1;rounded=0;entryX=1;entryY=0.5;entryDx=0;entryDy=0;" edge="1" parent="1" target="etnrESip1TvwMa772Zup-5">
          <mxGeometry width="50" height="50" relative="1" as="geometry">
            <mxPoint x="-170" y="195" as="sourcePoint" />
            <mxPoint x="-120" y="145" as="targetPoint" />
          </mxGeometry>
        </mxCell>
        <mxCell id="etnrESip1TvwMa772Zup-18" value="" style="endArrow=none;html=1;rounded=0;entryX=1.007;entryY=0.705;entryDx=0;entryDy=0;entryPerimeter=0;" edge="1" parent="1" target="etnrESip1TvwMa772Zup-6">
          <mxGeometry width="50" height="50" relative="1" as="geometry">
            <mxPoint x="-150" y="190" as="sourcePoint" />
            <mxPoint x="-100" y="140" as="targetPoint" />
          </mxGeometry>
        </mxCell>
        <mxCell id="etnrESip1TvwMa772Zup-19" value="" style="endArrow=none;html=1;rounded=0;entryX=1;entryY=1;entryDx=0;entryDy=0;" edge="1" parent="1" target="etnrESip1TvwMa772Zup-7">
          <mxGeometry width="50" height="50" relative="1" as="geometry">
            <mxPoint x="-140" y="190" as="sourcePoint" />
            <mxPoint x="-90" y="140" as="targetPoint" />
          </mxGeometry>
        </mxCell>
        <mxCell id="etnrESip1TvwMa772Zup-20" value="" style="endArrow=none;html=1;rounded=0;entryX=0.426;entryY=1.012;entryDx=0;entryDy=0;entryPerimeter=0;" edge="1" parent="1" target="etnrESip1TvwMa772Zup-11">
          <mxGeometry width="50" height="50" relative="1" as="geometry">
            <mxPoint x="-100" y="190" as="sourcePoint" />
            <mxPoint x="-50" y="140" as="targetPoint" />
          </mxGeometry>
        </mxCell>
        <mxCell id="etnrESip1TvwMa772Zup-21" value="" style="endArrow=none;html=1;rounded=0;entryX=0;entryY=1;entryDx=0;entryDy=0;" edge="1" parent="1" target="etnrESip1TvwMa772Zup-12">
          <mxGeometry width="50" height="50" relative="1" as="geometry">
            <mxPoint x="-40" y="190" as="sourcePoint" />
            <mxPoint x="10" y="140" as="targetPoint" />
          </mxGeometry>
        </mxCell>
        <mxCell id="etnrESip1TvwMa772Zup-22" value="" style="endArrow=none;html=1;rounded=0;entryX=0.036;entryY=0.641;entryDx=0;entryDy=0;entryPerimeter=0;" edge="1" parent="1" target="etnrESip1TvwMa772Zup-13">
          <mxGeometry width="50" height="50" relative="1" as="geometry">
            <mxPoint x="-10" y="190" as="sourcePoint" />
            <mxPoint x="40" y="140" as="targetPoint" />
          </mxGeometry>
        </mxCell>
        <mxCell id="etnrESip1TvwMa772Zup-23" value="" style="endArrow=none;html=1;rounded=0;entryX=0;entryY=0.5;entryDx=0;entryDy=0;" edge="1" parent="1" target="etnrESip1TvwMa772Zup-14">
          <mxGeometry width="50" height="50" relative="1" as="geometry">
            <mxPoint y="230" as="sourcePoint" />
            <mxPoint x="50" y="180" as="targetPoint" />
          </mxGeometry>
        </mxCell>
        <mxCell id="etnrESip1TvwMa772Zup-24" value="" style="endArrow=none;html=1;rounded=0;exitX=1.002;exitY=0.302;exitDx=0;exitDy=0;exitPerimeter=0;" edge="1" parent="1" source="etnrESip1TvwMa772Zup-8">
          <mxGeometry width="50" height="50" relative="1" as="geometry">
            <mxPoint x="-480" y="270" as="sourcePoint" />
            <mxPoint x="-430" y="220" as="targetPoint" />
          </mxGeometry>
        </mxCell>
        <mxCell id="etnrESip1TvwMa772Zup-25" value="" style="endArrow=none;html=1;rounded=0;exitX=1;exitY=0.5;exitDx=0;exitDy=0;" edge="1" parent="1" source="etnrESip1TvwMa772Zup-9">
          <mxGeometry width="50" height="50" relative="1" as="geometry">
            <mxPoint x="-490" y="240" as="sourcePoint" />
            <mxPoint x="-440" y="190" as="targetPoint" />
          </mxGeometry>
        </mxCell>
        <mxCell id="etnrESip1TvwMa772Zup-26" value="" style="endArrow=none;html=1;rounded=0;exitX=0;exitY=0;exitDx=0;exitDy=0;entryX=1;entryY=1;entryDx=0;entryDy=0;" edge="1" parent="1" source="etnrESip1TvwMa772Zup-5" target="etnrESip1TvwMa772Zup-10">
          <mxGeometry width="50" height="50" relative="1" as="geometry">
            <mxPoint x="-490" y="160" as="sourcePoint" />
            <mxPoint x="-440" y="110" as="targetPoint" />
          </mxGeometry>
        </mxCell>
        <mxCell id="etnrESip1TvwMa772Zup-30" value="" style="endArrow=none;html=1;rounded=0;entryX=0;entryY=0.5;entryDx=0;entryDy=0;" edge="1" parent="1">
          <mxGeometry width="50" height="50" relative="1" as="geometry">
            <mxPoint y="240" as="sourcePoint" />
            <mxPoint x="170" y="95" as="targetPoint" />
          </mxGeometry>
        </mxCell>
        <mxCell id="etnrESip1TvwMa772Zup-31" value="" style="ellipse;whiteSpace=wrap;html=1;fillColor=#FFFFCC;" vertex="1" parent="1">
          <mxGeometry x="170" y="50" width="140" height="90" as="geometry" />
        </mxCell>
        <mxCell id="etnrESip1TvwMa772Zup-32" value="&lt;font style=&quot;font-size: 18px;&quot;&gt;Contact_NO&lt;/font&gt;" style="ellipse;whiteSpace=wrap;html=1;fillColor=#FFFFCC;" vertex="1" parent="1">
          <mxGeometry x="180" y="55" width="120" height="80" as="geometry" />
        </mxCell>
        <mxCell id="etnrESip1TvwMa772Zup-33" value="&lt;font style=&quot;font-size: 24px;&quot;&gt;&lt;b&gt;Nurses&lt;/b&gt;&lt;/font&gt;" style="rounded=1;whiteSpace=wrap;html=1;fillColor=#CDA2BE;" vertex="1" parent="1">
          <mxGeometry x="-160" y="810" width="170" height="70" as="geometry" />
        </mxCell>
        <mxCell id="etnrESip1TvwMa772Zup-34" value="&lt;font style=&quot;font-size: 18px;&quot;&gt;attends&lt;/font&gt;" style="rhombus;whiteSpace=wrap;html=1;fillColor=#FFCCCC;" vertex="1" parent="1">
          <mxGeometry x="-170" y="490" width="165" height="130" as="geometry" />
        </mxCell>
        <mxCell id="etnrESip1TvwMa772Zup-35" value="&lt;font style=&quot;font-size: 18px;&quot;&gt;&lt;u&gt;Nurse_ID&lt;/u&gt;&lt;/font&gt;" style="ellipse;whiteSpace=wrap;html=1;fillColor=#FFFFCC;" vertex="1" parent="1">
          <mxGeometry x="-280" y="970" width="120" height="80" as="geometry" />
        </mxCell>
        <mxCell id="etnrESip1TvwMa772Zup-36" value="&lt;font style=&quot;font-size: 18px;&quot;&gt;Nurse_Name&lt;/font&gt;" style="ellipse;whiteSpace=wrap;html=1;fillColor=#FFFFCC;" vertex="1" parent="1">
          <mxGeometry x="-60" y="970" width="140" height="90" as="geometry" />
        </mxCell>
        <mxCell id="etnrESip1TvwMa772Zup-37" value="" style="endArrow=none;html=1;rounded=0;exitX=0.643;exitY=-0.012;exitDx=0;exitDy=0;exitPerimeter=0;" edge="1" parent="1" source="etnrESip1TvwMa772Zup-35">
          <mxGeometry width="50" height="50" relative="1" as="geometry">
            <mxPoint x="-170" y="930" as="sourcePoint" />
            <mxPoint x="-120" y="880" as="targetPoint" />
          </mxGeometry>
        </mxCell>
        <mxCell id="etnrESip1TvwMa772Zup-38" value="" style="endArrow=none;html=1;rounded=0;" edge="1" parent="1">
          <mxGeometry width="50" height="50" relative="1" as="geometry">
            <mxPoint x="10" y="970" as="sourcePoint" />
            <mxPoint x="-10" y="880" as="targetPoint" />
          </mxGeometry>
        </mxCell>
        <mxCell id="etnrESip1TvwMa772Zup-39" value="&lt;font style=&quot;font-size: 24px;&quot;&gt;&lt;b&gt;Houses&lt;/b&gt;&lt;/font&gt;" style="rounded=1;whiteSpace=wrap;html=1;fillColor=#CDA2BE;" vertex="1" parent="1">
          <mxGeometry x="870" y="270" width="170" height="70" as="geometry" />
        </mxCell>
        <mxCell id="etnrESip1TvwMa772Zup-40" value="&lt;font style=&quot;font-size: 18px;&quot;&gt;assists&lt;/font&gt;" style="rhombus;whiteSpace=wrap;html=1;fillColor=#FFCCCC;" vertex="1" parent="1">
          <mxGeometry x="430" y="230" width="165" height="130" as="geometry" />
        </mxCell>
        <mxCell id="etnrESip1TvwMa772Zup-41" value="&lt;font style=&quot;font-size: 18px;&quot;&gt;Patient_ID&lt;/font&gt;" style="ellipse;whiteSpace=wrap;html=1;fillColor=#FFFFCC;" vertex="1" parent="1">
          <mxGeometry x="452.5" y="70" width="120" height="80" as="geometry" />
        </mxCell>
        <mxCell id="etnrESip1TvwMa772Zup-42" value="&lt;font style=&quot;font-size: 18px;&quot;&gt;&lt;u&gt;House_ID&lt;/u&gt;&lt;/font&gt;" style="ellipse;whiteSpace=wrap;html=1;fillColor=#FFFFCC;" vertex="1" parent="1">
          <mxGeometry x="900" y="100" width="120" height="80" as="geometry" />
        </mxCell>
        <mxCell id="etnrESip1TvwMa772Zup-62" value="&lt;font style=&quot;font-size: 18px;&quot;&gt;Patient_Address&lt;/font&gt;" style="ellipse;whiteSpace=wrap;html=1;fillColor=#FFFFCC;" vertex="1" parent="1">
          <mxGeometry x="1165" y="260" width="150" height="80" as="geometry" />
        </mxCell>
        <mxCell id="etnrESip1TvwMa772Zup-63" value="&lt;font style=&quot;font-size: 18px;&quot;&gt;City&lt;/font&gt;" style="ellipse;whiteSpace=wrap;html=1;fillColor=#FFFFCC;" vertex="1" parent="1">
          <mxGeometry x="1400" y="280" width="120" height="80" as="geometry" />
        </mxCell>
        <mxCell id="etnrESip1TvwMa772Zup-64" value="&lt;font style=&quot;font-size: 18px;&quot;&gt;Street&lt;/font&gt;" style="ellipse;whiteSpace=wrap;html=1;fillColor=#FFFFCC;" vertex="1" parent="1">
          <mxGeometry x="1380" y="180" width="120" height="80" as="geometry" />
        </mxCell>
        <mxCell id="etnrESip1TvwMa772Zup-65" value="&lt;font style=&quot;font-size: 18px;&quot;&gt;Zip_code&lt;/font&gt;" style="ellipse;whiteSpace=wrap;html=1;fillColor=#FFFFCC;" vertex="1" parent="1">
          <mxGeometry x="1270" y="105" width="120" height="80" as="geometry" />
        </mxCell>
        <mxCell id="etnrESip1TvwMa772Zup-69" value="" style="endArrow=none;html=1;rounded=0;entryX=0.5;entryY=1;entryDx=0;entryDy=0;" edge="1" parent="1" target="etnrESip1TvwMa772Zup-42">
          <mxGeometry width="50" height="50" relative="1" as="geometry">
            <mxPoint x="960" y="270" as="sourcePoint" />
            <mxPoint x="1010" y="220" as="targetPoint" />
          </mxGeometry>
        </mxCell>
        <mxCell id="etnrESip1TvwMa772Zup-70" value="" style="endArrow=none;html=1;rounded=0;entryX=0;entryY=0.5;entryDx=0;entryDy=0;exitX=1;exitY=0.5;exitDx=0;exitDy=0;" edge="1" parent="1" source="etnrESip1TvwMa772Zup-39" target="etnrESip1TvwMa772Zup-62">
          <mxGeometry width="50" height="50" relative="1" as="geometry">
            <mxPoint x="1040" y="320" as="sourcePoint" />
            <mxPoint x="1090" y="270" as="targetPoint" />
          </mxGeometry>
        </mxCell>
        <mxCell id="etnrESip1TvwMa772Zup-71" value="" style="endArrow=none;html=1;rounded=0;entryX=0;entryY=1;entryDx=0;entryDy=0;" edge="1" parent="1" target="etnrESip1TvwMa772Zup-65">
          <mxGeometry width="50" height="50" relative="1" as="geometry">
            <mxPoint x="1240" y="260" as="sourcePoint" />
            <mxPoint x="1290" y="210" as="targetPoint" />
          </mxGeometry>
        </mxCell>
        <mxCell id="etnrESip1TvwMa772Zup-72" value="" style="endArrow=none;html=1;rounded=0;entryX=-0.014;entryY=0.686;entryDx=0;entryDy=0;entryPerimeter=0;" edge="1" parent="1" target="etnrESip1TvwMa772Zup-64">
          <mxGeometry width="50" height="50" relative="1" as="geometry">
            <mxPoint x="1310" y="280" as="sourcePoint" />
            <mxPoint x="1360" y="230" as="targetPoint" />
          </mxGeometry>
        </mxCell>
        <mxCell id="etnrESip1TvwMa772Zup-73" value="" style="endArrow=none;html=1;rounded=0;entryX=0;entryY=0.671;entryDx=0;entryDy=0;entryPerimeter=0;exitX=0.914;exitY=0.757;exitDx=0;exitDy=0;exitPerimeter=0;" edge="1" parent="1" source="etnrESip1TvwMa772Zup-62" target="etnrESip1TvwMa772Zup-63">
          <mxGeometry width="50" height="50" relative="1" as="geometry">
            <mxPoint x="1300" y="330" as="sourcePoint" />
            <mxPoint x="1350" y="280" as="targetPoint" />
          </mxGeometry>
        </mxCell>
        <mxCell id="etnrESip1TvwMa772Zup-74" value="" style="endArrow=none;html=1;rounded=0;entryX=0.5;entryY=1;entryDx=0;entryDy=0;" edge="1" parent="1" target="etnrESip1TvwMa772Zup-41">
          <mxGeometry width="50" height="50" relative="1" as="geometry">
            <mxPoint x="510" y="230" as="sourcePoint" />
            <mxPoint x="560" y="180" as="targetPoint" />
          </mxGeometry>
        </mxCell>
        <mxCell id="etnrESip1TvwMa772Zup-75" value="&lt;font style=&quot;font-size: 18px;&quot;&gt;assists&lt;/font&gt;" style="rhombus;whiteSpace=wrap;html=1;fillColor=#FFCCCC;" vertex="1" parent="1">
          <mxGeometry x="430" y="510" width="165" height="130" as="geometry" />
        </mxCell>
        <mxCell id="etnrESip1TvwMa772Zup-76" value="&lt;font style=&quot;font-size: 24px;&quot;&gt;&lt;b&gt;Students&lt;/b&gt;&lt;/font&gt;" style="rounded=1;whiteSpace=wrap;html=1;fillColor=#CDA2BE;" vertex="1" parent="1">
          <mxGeometry x="880" y="554.5" width="170" height="70" as="geometry" />
        </mxCell>
        <mxCell id="etnrESip1TvwMa772Zup-77" value="&lt;font style=&quot;font-size: 18px;&quot;&gt;Category&lt;/font&gt;" style="ellipse;whiteSpace=wrap;html=1;fillColor=#FFFFCC;" vertex="1" parent="1">
          <mxGeometry x="1160" y="670" width="145" height="80" as="geometry" />
        </mxCell>
        <mxCell id="etnrESip1TvwMa772Zup-78" value="&lt;font style=&quot;font-size: 18px;&quot;&gt;Student_Name&lt;/font&gt;" style="ellipse;whiteSpace=wrap;html=1;fillColor=#FFFFCC;" vertex="1" parent="1">
          <mxGeometry x="1235" y="544.5" width="150" height="80" as="geometry" />
        </mxCell>
        <mxCell id="etnrESip1TvwMa772Zup-79" value="&lt;font style=&quot;font-size: 18px;&quot;&gt;&lt;u&gt;Student_ID&lt;/u&gt;&lt;/font&gt;" style="ellipse;whiteSpace=wrap;html=1;fillColor=#FFFFCC;" vertex="1" parent="1">
          <mxGeometry x="1240" y="430" width="140" height="80" as="geometry" />
        </mxCell>
        <mxCell id="etnrESip1TvwMa772Zup-80" value="&lt;font style=&quot;font-size: 24px;&quot;&gt;&lt;b&gt;Social Services&lt;/b&gt;&lt;/font&gt;" style="rounded=1;whiteSpace=wrap;html=1;fillColor=#CDA2BE;" vertex="1" parent="1">
          <mxGeometry x="850" y="840" width="210" height="70" as="geometry" />
        </mxCell>
        <mxCell id="etnrESip1TvwMa772Zup-81" value="&lt;font style=&quot;font-size: 18px;&quot;&gt;&lt;u&gt;Service_ID&lt;/u&gt;&lt;/font&gt;" style="ellipse;whiteSpace=wrap;html=1;fillColor=#FFFFCC;" vertex="1" parent="1">
          <mxGeometry x="1185" y="820" width="150" height="80" as="geometry" />
        </mxCell>
        <mxCell id="etnrESip1TvwMa772Zup-82" value="&lt;font style=&quot;font-size: 18px;&quot;&gt;Service_Name&lt;/font&gt;" style="ellipse;whiteSpace=wrap;html=1;fillColor=#FFFFCC;" vertex="1" parent="1">
          <mxGeometry x="1150" y="990" width="150" height="80" as="geometry" />
        </mxCell>
        <mxCell id="etnrESip1TvwMa772Zup-83" value="&lt;font style=&quot;font-size: 18px;&quot;&gt;serves&lt;/font&gt;" style="rhombus;whiteSpace=wrap;html=1;fillColor=#FFCCCC;" vertex="1" parent="1">
          <mxGeometry x="430" y="810" width="165" height="130" as="geometry" />
        </mxCell>
        <mxCell id="etnrESip1TvwMa772Zup-84" value="&lt;font style=&quot;font-size: 18px;&quot;&gt;day_of_service&lt;/font&gt;" style="ellipse;whiteSpace=wrap;html=1;fillColor=#FFFFCC;" vertex="1" parent="1">
          <mxGeometry x="440" y="1020" width="157.5" height="80" as="geometry" />
        </mxCell>
        <mxCell id="etnrESip1TvwMa772Zup-85" value="" style="endArrow=none;html=1;rounded=0;entryX=0;entryY=0.5;entryDx=0;entryDy=0;" edge="1" parent="1" target="etnrESip1TvwMa772Zup-79">
          <mxGeometry width="50" height="50" relative="1" as="geometry">
            <mxPoint x="1050" y="550" as="sourcePoint" />
            <mxPoint x="1090" y="500" as="targetPoint" />
          </mxGeometry>
        </mxCell>
        <mxCell id="etnrESip1TvwMa772Zup-86" value="" style="endArrow=none;html=1;rounded=0;" edge="1" parent="1">
          <mxGeometry width="50" height="50" relative="1" as="geometry">
            <mxPoint x="1050" y="580" as="sourcePoint" />
            <mxPoint x="1230" y="580" as="targetPoint" />
          </mxGeometry>
        </mxCell>
        <mxCell id="etnrESip1TvwMa772Zup-87" value="" style="endArrow=none;html=1;rounded=0;entryX=0.021;entryY=0.338;entryDx=0;entryDy=0;entryPerimeter=0;exitX=1;exitY=0.936;exitDx=0;exitDy=0;exitPerimeter=0;" edge="1" parent="1" source="etnrESip1TvwMa772Zup-76" target="etnrESip1TvwMa772Zup-77">
          <mxGeometry width="50" height="50" relative="1" as="geometry">
            <mxPoint x="1020" y="610" as="sourcePoint" />
            <mxPoint x="1070" y="560" as="targetPoint" />
          </mxGeometry>
        </mxCell>
        <mxCell id="etnrESip1TvwMa772Zup-88" value="" style="endArrow=none;html=1;rounded=0;entryX=0;entryY=0.5;entryDx=0;entryDy=0;" edge="1" parent="1" target="etnrESip1TvwMa772Zup-81">
          <mxGeometry width="50" height="50" relative="1" as="geometry">
            <mxPoint x="1060" y="850" as="sourcePoint" />
            <mxPoint x="1110" y="800" as="targetPoint" />
          </mxGeometry>
        </mxCell>
        <mxCell id="etnrESip1TvwMa772Zup-89" value="" style="endArrow=none;html=1;rounded=0;exitX=0.051;exitY=0.338;exitDx=0;exitDy=0;exitPerimeter=0;" edge="1" parent="1" source="etnrESip1TvwMa772Zup-82">
          <mxGeometry width="50" height="50" relative="1" as="geometry">
            <mxPoint x="1000" y="960" as="sourcePoint" />
            <mxPoint x="1050" y="910" as="targetPoint" />
          </mxGeometry>
        </mxCell>
        <mxCell id="etnrESip1TvwMa772Zup-90" value="" style="endArrow=none;html=1;rounded=0;entryX=0.5;entryY=1;entryDx=0;entryDy=0;exitX=0.431;exitY=-0.021;exitDx=0;exitDy=0;exitPerimeter=0;" edge="1" parent="1" source="etnrESip1TvwMa772Zup-84" target="etnrESip1TvwMa772Zup-83">
          <mxGeometry width="50" height="50" relative="1" as="geometry">
            <mxPoint x="500" y="1060" as="sourcePoint" />
            <mxPoint x="550" y="1010" as="targetPoint" />
          </mxGeometry>
        </mxCell>
        <mxCell id="etnrESip1TvwMa772Zup-91" value="" style="endArrow=none;html=1;rounded=0;entryX=0.5;entryY=1;entryDx=0;entryDy=0;" edge="1" parent="1" target="etnrESip1TvwMa772Zup-34">
          <mxGeometry width="50" height="50" relative="1" as="geometry">
            <mxPoint x="-90" y="810" as="sourcePoint" />
            <mxPoint x="-40" y="760" as="targetPoint" />
          </mxGeometry>
        </mxCell>
        <mxCell id="etnrESip1TvwMa772Zup-92" value="" style="endArrow=none;html=1;rounded=0;entryX=0.588;entryY=0.956;entryDx=0;entryDy=0;entryPerimeter=0;" edge="1" parent="1" target="etnrESip1TvwMa772Zup-34">
          <mxGeometry width="50" height="50" relative="1" as="geometry">
            <mxPoint x="-80" y="810" as="sourcePoint" />
            <mxPoint x="-30" y="760" as="targetPoint" />
          </mxGeometry>
        </mxCell>
        <mxCell id="etnrESip1TvwMa772Zup-93" value="" style="endArrow=none;html=1;rounded=0;entryX=0.398;entryY=1.033;entryDx=0;entryDy=0;entryPerimeter=0;exitX=0.418;exitY=0.095;exitDx=0;exitDy=0;exitPerimeter=0;" edge="1" parent="1" source="etnrESip1TvwMa772Zup-34" target="etnrESip1TvwMa772Zup-2">
          <mxGeometry width="50" height="50" relative="1" as="geometry">
            <mxPoint x="-170" y="470" as="sourcePoint" />
            <mxPoint x="-120" y="420" as="targetPoint" />
          </mxGeometry>
        </mxCell>
        <mxCell id="etnrESip1TvwMa772Zup-95" value="" style="endArrow=none;html=1;rounded=0;entryX=0.5;entryY=1;entryDx=0;entryDy=0;" edge="1" parent="1" target="etnrESip1TvwMa772Zup-2">
          <mxGeometry width="50" height="50" relative="1" as="geometry">
            <mxPoint x="-90" y="490" as="sourcePoint" />
            <mxPoint x="-40" y="440" as="targetPoint" />
          </mxGeometry>
        </mxCell>
        <mxCell id="etnrESip1TvwMa772Zup-97" value="" style="endArrow=none;html=1;rounded=0;entryX=0;entryY=0.25;entryDx=0;entryDy=0;" edge="1" parent="1" target="etnrESip1TvwMa772Zup-39">
          <mxGeometry width="50" height="50" relative="1" as="geometry">
            <mxPoint x="590" y="290" as="sourcePoint" />
            <mxPoint x="640" y="240" as="targetPoint" />
          </mxGeometry>
        </mxCell>
        <mxCell id="etnrESip1TvwMa772Zup-99" value="" style="endArrow=none;html=1;rounded=0;exitX=0.97;exitY=0.615;exitDx=0;exitDy=0;exitPerimeter=0;entryX=0;entryY=0.5;entryDx=0;entryDy=0;" edge="1" parent="1" source="etnrESip1TvwMa772Zup-40" target="etnrESip1TvwMa772Zup-39">
          <mxGeometry width="50" height="50" relative="1" as="geometry">
            <mxPoint x="610" y="410" as="sourcePoint" />
            <mxPoint x="660" y="360" as="targetPoint" />
          </mxGeometry>
        </mxCell>
        <mxCell id="etnrESip1TvwMa772Zup-100" value="" style="endArrow=none;html=1;rounded=0;entryX=0;entryY=0.5;entryDx=0;entryDy=0;" edge="1" parent="1" target="etnrESip1TvwMa772Zup-40">
          <mxGeometry width="50" height="50" relative="1" as="geometry">
            <mxPoint x="-20" y="810" as="sourcePoint" />
            <mxPoint x="30" y="760" as="targetPoint" />
          </mxGeometry>
        </mxCell>
        <mxCell id="etnrESip1TvwMa772Zup-101" value="" style="endArrow=none;html=1;rounded=0;entryX=0;entryY=0.5;entryDx=0;entryDy=0;" edge="1" parent="1" target="etnrESip1TvwMa772Zup-75">
          <mxGeometry width="50" height="50" relative="1" as="geometry">
            <mxPoint x="10" y="830" as="sourcePoint" />
            <mxPoint x="60" y="780" as="targetPoint" />
          </mxGeometry>
        </mxCell>
        <mxCell id="etnrESip1TvwMa772Zup-102" value="" style="endArrow=none;html=1;rounded=0;entryX=0;entryY=0.25;entryDx=0;entryDy=0;" edge="1" parent="1" target="etnrESip1TvwMa772Zup-76">
          <mxGeometry width="50" height="50" relative="1" as="geometry">
            <mxPoint x="590" y="570" as="sourcePoint" />
            <mxPoint x="640" y="520" as="targetPoint" />
          </mxGeometry>
        </mxCell>
        <mxCell id="etnrESip1TvwMa772Zup-103" value="" style="endArrow=none;html=1;rounded=0;entryX=0;entryY=0.5;entryDx=0;entryDy=0;" edge="1" parent="1" target="etnrESip1TvwMa772Zup-76">
          <mxGeometry width="50" height="50" relative="1" as="geometry">
            <mxPoint x="580" y="590" as="sourcePoint" />
            <mxPoint x="630" y="540" as="targetPoint" />
          </mxGeometry>
        </mxCell>
        <mxCell id="etnrESip1TvwMa772Zup-107" value="" style="endArrow=none;html=1;rounded=0;entryX=0;entryY=0.5;entryDx=0;entryDy=0;" edge="1" parent="1" target="etnrESip1TvwMa772Zup-83">
          <mxGeometry width="50" height="50" relative="1" as="geometry">
            <mxPoint x="10" y="860" as="sourcePoint" />
            <mxPoint x="60" y="810" as="targetPoint" />
          </mxGeometry>
        </mxCell>
        <mxCell id="etnrESip1TvwMa772Zup-108" value="" style="endArrow=none;html=1;rounded=0;" edge="1" parent="1" target="etnrESip1TvwMa772Zup-80">
          <mxGeometry width="50" height="50" relative="1" as="geometry">
            <mxPoint x="590" y="870" as="sourcePoint" />
            <mxPoint x="640" y="820" as="targetPoint" />
          </mxGeometry>
        </mxCell>
        <mxCell id="etnrESip1TvwMa772Zup-110" value="" style="endArrow=none;html=1;rounded=0;exitX=0.911;exitY=0.618;exitDx=0;exitDy=0;exitPerimeter=0;entryX=0;entryY=0.75;entryDx=0;entryDy=0;" edge="1" parent="1" source="etnrESip1TvwMa772Zup-83" target="etnrESip1TvwMa772Zup-80">
          <mxGeometry width="50" height="50" relative="1" as="geometry">
            <mxPoint x="-460" y="720" as="sourcePoint" />
            <mxPoint x="-410" y="670" as="targetPoint" />
          </mxGeometry>
        </mxCell>
        <mxCell id="etnrESip1TvwMa772Zup-111" value="&lt;font style=&quot;font-size: 24px;&quot;&gt;&lt;b&gt;M&lt;/b&gt;&lt;/font&gt;" style="text;html=1;align=center;verticalAlign=middle;whiteSpace=wrap;rounded=0;" vertex="1" parent="1">
          <mxGeometry x="-180" y="700" width="60" height="30" as="geometry" />
        </mxCell>
        <mxCell id="etnrESip1TvwMa772Zup-112" value="&lt;font style=&quot;font-size: 24px;&quot;&gt;&lt;b&gt;N&lt;/b&gt;&lt;/font&gt;" style="text;html=1;align=center;verticalAlign=middle;whiteSpace=wrap;rounded=0;" vertex="1" parent="1">
          <mxGeometry x="-180" y="350" width="60" height="30" as="geometry" />
        </mxCell>
        <mxCell id="etnrESip1TvwMa772Zup-113" value="&lt;font style=&quot;font-size: 24px;&quot;&gt;&lt;b&gt;M&lt;/b&gt;&lt;/font&gt;" style="text;html=1;align=center;verticalAlign=middle;whiteSpace=wrap;rounded=0;" vertex="1" parent="1">
          <mxGeometry x="160" y="750" width="60" height="30" as="geometry" />
        </mxCell>
        <mxCell id="etnrESip1TvwMa772Zup-114" value="&lt;font style=&quot;font-size: 24px;&quot;&gt;&lt;b&gt;N&lt;/b&gt;&lt;/font&gt;" style="text;html=1;align=center;verticalAlign=middle;whiteSpace=wrap;rounded=0;" vertex="1" parent="1">
          <mxGeometry x="680" y="610" width="60" height="30" as="geometry" />
        </mxCell>
        <mxCell id="etnrESip1TvwMa772Zup-115" value="&lt;font style=&quot;font-size: 24px;&quot;&gt;&lt;b&gt;1&lt;/b&gt;&lt;/font&gt;" style="text;html=1;align=center;verticalAlign=middle;whiteSpace=wrap;rounded=0;" vertex="1" parent="1">
          <mxGeometry x="250" y="360" width="60" height="30" as="geometry" />
        </mxCell>
        <mxCell id="etnrESip1TvwMa772Zup-116" value="&lt;font style=&quot;font-size: 24px;&quot;&gt;&lt;b&gt;1&lt;/b&gt;&lt;/font&gt;" style="text;html=1;align=center;verticalAlign=middle;whiteSpace=wrap;rounded=0;" vertex="1" parent="1">
          <mxGeometry x="660" y="250" width="60" height="30" as="geometry" />
        </mxCell>
        <mxCell id="etnrESip1TvwMa772Zup-117" value="&lt;font style=&quot;font-size: 24px;&quot;&gt;&lt;b&gt;M&lt;/b&gt;&lt;/font&gt;" style="text;html=1;align=center;verticalAlign=middle;whiteSpace=wrap;rounded=0;" vertex="1" parent="1">
          <mxGeometry x="310" y="890" width="60" height="30" as="geometry" />
        </mxCell>
        <mxCell id="etnrESip1TvwMa772Zup-118" value="&lt;font style=&quot;font-size: 24px;&quot;&gt;&lt;b&gt;N&lt;/b&gt;&lt;/font&gt;" style="text;html=1;align=center;verticalAlign=middle;whiteSpace=wrap;rounded=0;" vertex="1" parent="1">
          <mxGeometry x="640" y="930" width="60" height="30" as="geometry" />
        </mxCell>
      </root>
    </mxGraphModel>
  </diagram>
</mxfile>
